<svg width="261" height="261" viewBox="0 0 261 261" fill="none" xmlns="http://www.w3.org/2000/svg">
<path fill-rule="evenodd" clip-rule="evenodd" d="M130.346 1.53595L259.446 100.373L210.134 260.295H50.5583L1.24658 100.373L130.346 1.53595Z" fill="#E6E6E6" stroke="#C0C0C0"/>
<path fill-rule="evenodd" clip-rule="evenodd" d="M130.346 30.1436L233.626 109.213L194.176 237.151H66.5157L27.0664 109.213L130.346 30.1436Z" fill="#F5F5F5" stroke="#C0C0C0"/>
<path fill-rule="evenodd" clip-rule="evenodd" d="M130.346 58.7513L207.806 118.054L178.219 214.007H82.4732L52.8862 118.054L130.346 58.7513Z" fill="#E6E6E6" stroke="#C0C0C0"/>
<path fill-rule="evenodd" clip-rule="evenodd" d="M130.346 87.3589L181.986 126.894L162.262 190.862H98.4312L78.7065 126.894L130.346 87.3589Z" fill="#F5F5F5" stroke="#C0C0C0"/>
<path fill-rule="evenodd" clip-rule="evenodd" d="M130.346 115.967L156.166 135.734L146.304 167.718H114.389L104.526 135.734L130.346 115.967Z" fill="#E6E6E6" stroke="#C0C0C0"/>
<path d="M130.346 144.574V1.53595" stroke="#C0C0C0"/>
<path d="M130.346 144.574L259.446 100.373" stroke="#C0C0C0"/>
<path d="M130.346 144.574L210.134 260.295" stroke="#C0C0C0"/>
<path d="M130.346 144.574L50.5581 260.295" stroke="#C0C0C0"/>
<path d="M130.346 144.574L1.24658 100.373" stroke="#C0C0C0"/>
</svg>
