<svg width="176" height="147" viewBox="0 0 176 147" fill="none" xmlns="http://www.w3.org/2000/svg">
<path d="M107.346 6.96605C108.79 6.96605 109.872 5.74881 109.872 4.35888C109.872 2.96895 108.79 1.75171 107.346 1.75171C105.903 1.75171 104.821 2.96895 104.821 4.35888C104.821 5.74881 105.903 6.96605 107.346 6.96605Z" fill="white" stroke="#0263FF" stroke-width="2"/>
<path d="M171.896 42.0807C173.34 42.0807 174.422 40.8635 174.422 39.4736C174.422 38.0836 173.34 36.8664 171.896 36.8664C170.453 36.8664 169.371 38.0836 169.371 39.4736C169.371 40.8635 170.453 42.0807 171.896 42.0807Z" fill="white" stroke="#0263FF" stroke-width="2"/>
<path d="M155.219 133.614C156.662 133.614 157.744 132.396 157.744 131.006C157.744 129.617 156.662 128.399 155.219 128.399C153.776 128.399 152.694 129.617 152.694 131.006C152.694 132.396 153.776 133.614 155.219 133.614Z" fill="white" stroke="#0263FF" stroke-width="2"/>
<path d="M51.4949 145.186C52.9382 145.186 54.0201 143.968 54.0201 142.578C54.0201 141.189 52.9382 139.971 51.4949 139.971C50.0516 139.971 48.9697 141.189 48.9697 142.578C48.9697 143.968 50.0516 145.186 51.4949 145.186Z" fill="white" stroke="#0263FF" stroke-width="2"/>
<path d="M4.06671 28.8204C5.51002 28.8204 6.59192 27.6031 6.59192 26.2132C6.59192 24.8233 5.51002 23.606 4.06671 23.606C2.6234 23.606 1.5415 24.8233 1.5415 26.2132C1.5415 27.6031 2.6234 28.8204 4.06671 28.8204Z" fill="white" stroke="#0263FF" stroke-width="2"/>
</svg>
