<svg width="24" height="22" viewBox="0 0 24 22" fill="none" xmlns="http://www.w3.org/2000/svg">
<path d="M22.2857 8.64286H14.5714V1.57143C14.5714 0.703705 13.8038 0 12.8571 0H11.1429C10.1962 0 9.42857 0.703705 9.42857 1.57143V8.64286H1.71429C0.767679 8.64286 0 9.34656 0 10.2143V11.7857C0 12.6534 0.767679 13.3571 1.71429 13.3571H9.42857V20.4286C9.42857 21.2963 10.1962 22 11.1429 22H12.8571C13.8038 22 14.5714 21.2963 14.5714 20.4286V13.3571H22.2857C23.2323 13.3571 24 12.6534 24 11.7857V10.2143C24 9.34656 23.2323 8.64286 22.2857 8.64286Z" fill="#4B9D70"/>
</svg>
