<svg width="25" height="23" viewBox="0 0 25 23" fill="none" xmlns="http://www.w3.org/2000/svg">
<path d="M22.7857 9.14286H15.0714V2.07143C15.0714 1.20371 14.3038 0.5 13.3571 0.5H11.6429C10.6962 0.5 9.92857 1.20371 9.92857 2.07143V9.14286H2.21429C1.26768 9.14286 0.5 9.84656 0.5 10.7143V12.2857C0.5 13.1534 1.26768 13.8571 2.21429 13.8571H9.92857V20.9286C9.92857 21.7963 10.6962 22.5 11.6429 22.5H13.3571C14.3038 22.5 15.0714 21.7963 15.0714 20.9286V13.8571H22.7857C23.7323 13.8571 24.5 13.1534 24.5 12.2857V10.7143C24.5 9.84656 23.7323 9.14286 22.7857 9.14286Z" fill="#4B9D70"/>
</svg>
